<svg xmlns="http://www.w3.org/2000/svg" width="1100" height="520" viewBox="0 0 1100 520" font-family="monospace">
  <rect width="1100" height="520" fill="#05070d"/>
  <text x="40" y="46" fill="#7ee4ff" font-size="22" letter-spacing="3">APSIS GROUND NODE, RF FRONT END</text>
  <text x="40" y="70" fill="#5a7390" font-size="13">137 / 435 MHz GPS-disciplined receiver · system NF ≈ 2.3 dB</text>

  <!-- signal chain -->
  <g stroke="#2b6fa0" stroke-width="2" fill="none">
    <line x1="70"  y1="170" x2="1040" y2="170"/>
  </g>

  <!-- stage boxes -->
  <g font-size="13">
    <!-- Antenna -->
    <g>
      <path d="M40 150 l30 -28 l0 56 z" fill="#0a1426" stroke="#4fd6ff"/>
      <text x="34" y="210" fill="#9fb4cc">ANT</text>
      <text x="20" y="228" fill="#5a7390">SMA</text>
    </g>

    <!-- ESD/DC block -->
    <rect x="120" y="142" width="96" height="56" rx="6" fill="#0a1426" stroke="#4fd6ff"/>
    <text x="135" y="166" fill="#cfe8ff">ESD +</text>
    <text x="135" y="184" fill="#cfe8ff">DC blk</text>
    <text x="120" y="226" fill="#ff8a3d">-0.2 dB</text>

    <!-- Pre filter -->
    <rect x="250" y="142" width="110" height="56" rx="6" fill="#0a1426" stroke="#4fd6ff"/>
    <text x="262" y="166" fill="#cfe8ff">SAW BPF</text>
    <text x="262" y="184" fill="#cfe8ff">137/435</text>
    <text x="252" y="226" fill="#ff8a3d">-1.3 dB</text>

    <!-- LNA (triangle) -->
    <path d="M400 138 l72 32 l-72 32 z" fill="#11202e" stroke="#5dffa8" stroke-width="2"/>
    <text x="408" y="176" fill="#5dffa8">LNA</text>
    <text x="392" y="226" fill="#5dffa8">+18 dB · NF 0.6</text>

    <!-- Post filter -->
    <rect x="520" y="142" width="110" height="56" rx="6" fill="#0a1426" stroke="#4fd6ff"/>
    <text x="532" y="166" fill="#cfe8ff">SAW BPF</text>
    <text x="532" y="184" fill="#cfe8ff">post-sel</text>
    <text x="522" y="226" fill="#ff8a3d">-1.6 dB</text>

    <!-- Bias tee -->
    <rect x="670" y="142" width="96" height="56" rx="6" fill="#0a1426" stroke="#4fd6ff"/>
    <text x="682" y="166" fill="#cfe8ff">BIAS</text>
    <text x="682" y="184" fill="#cfe8ff">TEE 5V</text>

    <!-- SDR -->
    <rect x="820" y="138" width="120" height="64" rx="6" fill="#11202e" stroke="#ffc94d"/>
    <text x="836" y="164" fill="#ffe6a8">RTL-SDR</text>
    <text x="836" y="184" fill="#9fb4cc">R820T2</text>
    <text x="828" y="226" fill="#5a7390">host USB</text>
  </g>

  <!-- GNSS timing block -->
  <g font-size="13">
    <rect x="250" y="320" width="150" height="70" rx="6" fill="#0a1426" stroke="#b06bff"/>
    <text x="262" y="348" fill="#d9bcff">GNSS RX</text>
    <text x="262" y="368" fill="#9fb4cc">SE4150L</text>
    <text x="262" y="384" fill="#9fb4cc">1 PPS out</text>

    <rect x="450" y="320" width="150" height="70" rx="6" fill="#0a1426" stroke="#b06bff"/>
    <text x="462" y="348" fill="#d9bcff">TCXO</text>
    <text x="462" y="368" fill="#9fb4cc">26 MHz 0.5ppm</text>
    <text x="462" y="384" fill="#9fb4cc">PPS disciplined</text>

    <rect x="650" y="320" width="190" height="70" rx="6" fill="#0a1426" stroke="#b06bff"/>
    <text x="662" y="348" fill="#d9bcff">TIMESTAMP / UPLINK</text>
    <text x="662" y="368" fill="#9fb4cc">tags IQ to PPS edges</text>
    <text x="662" y="384" fill="#9fb4cc">Doppler → APSIS API</text>

    <g stroke="#7a52b0" stroke-width="2" fill="none">
      <line x1="400" y1="355" x2="450" y2="355"/>
      <line x1="600" y1="355" x2="650" y2="355"/>
      <line x1="880" y1="200" x2="880" y2="300" stroke="#7a52b0" stroke-dasharray="4 4"/>
      <line x1="745" y1="355" x2="880" y2="355"/>
      <line x1="880" y1="355" x2="880" y2="300"/>
    </g>
    <text x="724" y="300" fill="#7a52b0" font-size="11">sample clock + PPS</text>
  </g>

  <!-- power rail -->
  <g font-size="13">
    <rect x="40" y="430" width="160" height="56" rx="6" fill="#0a1426" stroke="#43e08a"/>
    <text x="52" y="454" fill="#9fe8c0">USB-C 5V</text>
    <text x="52" y="472" fill="#5a7390">host power</text>
    <rect x="240" y="430" width="180" height="56" rx="6" fill="#0a1426" stroke="#43e08a"/>
    <text x="252" y="454" fill="#9fe8c0">LDO 3.3V + pi</text>
    <text x="252" y="472" fill="#5a7390">analog / digital split</text>
    <g stroke="#2e8f5f" stroke-width="2"><line x1="200" y1="458" x2="240" y2="458"/></g>
    <text x="440" y="462" fill="#5a7390" font-size="11">→ LNA bias, GNSS, timing</text>
  </g>

  <!-- result callout -->
  <g>
    <rect x="820" y="320" width="240" height="70" rx="6" fill="#101b12" stroke="#43e08a"/>
    <text x="836" y="348" fill="#9fe8c0" font-size="13">SYSTEM NF ≈ 2.33 dB</text>
    <text x="836" y="368" fill="#9fb4cc" font-size="12">CNR ≈ 16 dB @ 1000 km</text>
    <text x="836" y="384" fill="#9fb4cc" font-size="12">beacon, 435 MHz</text>
  </g>
</svg>
